<svg xmlns="http://www.w3.org/2000/svg" viewBox="0 0 1064.61 1069.79"><defs><style>.cls-1{fill:#713abe;}.cls-2{fill:#755e5a;}.cls-3{fill:#e5cff7;}.cls-4{fill:#380660;}.cls-5{fill:#fff;}.cls-6{fill:none;}</style></defs><title>logo-blink</title><g id="COLORS"><path class="cls-1" d="M210.85,1065.07l51.81-84.16-25.19-82.75a1,1,0,0,0-1.8-.14l-55.53,112.82L90.57,966.26a.1.1,0,0,0-.12.16l97.37,91.17Z" transform="translate(-56.83 -57.94)"/><polygon class="cls-1" points="184.32 852.33 196.88 866.49 276.84 956.64 198.15 1016.49 154.02 1007.14 205.83 922.97 184.32 852.33"/><polygon class="cls-2" points="412.13 890.25 414.05 888.37 400.62 886.5 197.19 865.93 275.88 955.7 323.85 916.43 412.13 890.25"/><path class="cls-2" d="M557.71,1098.74,457,952.87l79.57,43L563,1060.4l136,67.2s0,.08,0,.07Z" transform="translate(-56.83 -57.94)"/><polygon class="cls-3" points="477.85 932.33 451.47 851.9 459.15 750.91 603.08 801.41 668.33 917.36 603.08 1007.14 496.22 987.68 477.85 932.33"/><polygon class="cls-1" points="642.42 1069.79 684.64 944.48 667.37 916.43 602.12 1006.2 496.22 987.68 506.16 1002.46 642.42 1069.79"/><polygon class="cls-2" points="622.49 835.9 753.72 806.08 749.88 858.45 622.49 835.9"/><polygon class="cls-2" points="773.38 937.94 623.23 836.01 749.88 858.45 794.02 897.73 932.2 925.78 773.38 937.94"/><polygon class="cls-1" points="753.72 806.08 855.43 845.36 926.44 746.23 932.2 925.78 794.02 897.73 749.88 858.45 753.72 806.08"/><polygon class="cls-3" points="684.64 566.69 688.48 671.42 753.72 806.08 855.43 845.36 926.44 746.23 843.54 636.06 799.78 577.91 684.64 566.69"/><polygon class="cls-2" points="922.6 428.29 843.92 635.89 799.78 577.91 922.6 428.29"/><polygon class="cls-1" points="1001.28 568.56 843.92 635.89 922.6 428.29 1001.28 568.56"/><polygon class="cls-1" points="1064.61 424.55 1001.28 568.56 922.6 428.29 1008.96 446.99 1064.61 424.55"/><polygon class="cls-3" points="888.06 349.74 886.61 236.59 974.42 286.15 1064.61 424.55 1008.96 446.99 922.6 428.29 888.06 349.74"/><polyline class="cls-4" points="41.01 695.95 69.09 642.43 168.41 495.62 235.58 362.83 417.89 377.79 623.23 460.08 774.83 473.18 922.6 428.29 799.78 577.91 684.64 566.69 688.48 671.42 753.72 806.08 623.23 836.01 604.04 806.08 460.11 751.85 452.43 852.84 477.38 935.13 399.17 896.79 197.19 865.93 184.32 852.33 120.43 716.31 33.58 694.8"/><polygon class="cls-1" points="379.51 226.3 417.89 377.79 235.58 362.83 379.51 226.3"/><polygon class="cls-1" points="561.82 336.65 623.23 460.08 417.89 377.79 561.82 336.65"/><polygon class="cls-1" points="469.7 99.12 483.13 215.08 605.96 173.93 561.82 336.65 417.89 377.79 379.51 226.3 469.7 99.12"/><polygon class="cls-1" points="617.94 118.76 605.96 173.93 483.13 215.08 469.7 99.12 511.92 48.63 617.94 118.76"/><polygon class="cls-3" points="623.23 0 511.92 48.63 464.78 106.06 566.42 94.48 606.61 170.94 617.94 118.76 623.23 0"/><polygon class="cls-3" points="0.49 686.29 0 764 34.07 907.91 124.27 953.83 178.84 840.09 120.43 717.15 0.49 686.29"/><polyline class="cls-2" points="41.04 637 41.01 695.95 167.81 498.13"/><path class="cls-5" d="M568.75,106.56" transform="translate(-56.83 -57.94)"/></g><g id="EYE"><polyline class="cls-3" points="416.44 713.51 579.56 618.12 416.44 713.51 255.24 601.29"/><path class="cls-6" d="M386.91,668.58" transform="translate(-56.83 -57.94)"/><path class="cls-6" d="M473.27,769.57" transform="translate(-56.83 -57.94)"/><path class="cls-6" d="M523.16,745.26" transform="translate(-56.83 -57.94)"/><path class="cls-6" d="M469.43,590" transform="translate(-56.83 -57.94)"/></g></svg>